<svg height="110" version="1" width="110" xmlns="http://www.w3.org/2000/svg"><circle cx="55" cy="55" r="55" fill="#25b7d3"/><path d="M37 47v-7a1 1 0 0 0-2 0v7h-2V36a1 1 0 0 0-2 0v11l-4 8v8h16V47h-6z" fill="#fff"/><path fill="#4ac3af" d="M45 57h10v6H45z"/><path fill="#fbec9a" d="M55 57h10v6H55z"/><path fill="#f3b607" d="M65 57h10v6H65z"/><path fill="#fbe158" d="M45 51h10v6H45z"/><path fill="#f37a10" d="M55 51h10v6H55z"/><path fill="#fbe158" d="M65 51h10v6H65z"/><path fill="#f37a10" d="M45 45h10v6H45z"/><path fill="#4ac3af" d="M55 45h10v6H55z"/><path fill="#059bbf" d="M65 45h10v6H65z"/><path fill="#fbec9a" d="M45 39h10v6H45z"/><path fill="#059bbf" d="M55 39h10v6H55z"/><path fill="#f3b607" d="M45 33h10v6H45z"/><path d="M87 59c-1.4 6.27-3.57 11.84-7.28 16A21.023 21.023 0 0 1 75 79H35c-2-1.11-3.75-2.45-5.25-4-3.15-3.21-5.29-7.3-6.75-12h48l4-4h12z" fill="#3e3e3f"/><path d="M79.72 75A21.023 21.023 0 0 1 75 79H35c-2-1.11-3.75-2.45-5.25-4h49.97z" fill="#df2c2c"/><path d="M29.75 75c1.5 1.55 3.25 2.89 5.25 4h15.413l16-16H23c1.46 4.7 3.6 8.79 6.75 12z" fill="#5b5c5f"/><path fill="#6fdaf1" d="M35 50h8v6h-8z"/><path d="M29.75 75c1.5 1.55 3.25 2.89 5.25 4h15.413l4-4H29.75z" fill="#fa5655"/></svg>