<svg height="90" id="Layer_1" width="90" xmlns="http://www.w3.org/2000/svg"><style>.st5{fill:#fff}.st19{fill:#414154}.st42{fill:#fa466a}.st47{fill:#4d5770}.st62{fill:#8ffc48}.st65{fill:#cff3ff}</style><circle cx="45" cy="45" r="45" fill="#81d4ef"/><path fill="#30304d" d="M20 33h44v23H20z"/><path class="st47" d="M65 70H19a2 2 0 0 1-2-2V56a2 2 0 0 1 2-2h46a2 2 0 0 1 2 2v12a2 2 0 0 1-2 2z"/><path class="st19" d="M65 70H45V54h20a2 2 0 0 1 2 2v12a2 2 0 0 1-2 2z"/><path class="st47" d="M65 52H19a2 2 0 0 1-2-2V38a2 2 0 0 1 2-2h46a2 2 0 0 1 2 2v12a2 2 0 0 1-2 2zM65 34H19a2 2 0 0 1-2-2V20a2 2 0 0 1 2-2h46a2 2 0 0 1 2 2v12a2 2 0 0 1-2 2z"/><path class="st19" d="M65 34H45V18h20a2 2 0 0 1 2 2v12a2 2 0 0 1-2 2zM65 52H45V36h20a2 2 0 0 1 2 2v12a2 2 0 0 1-2 2z"/><path class="st62" d="M61.71 25.28c-.38-.373-1.05-.373-1.42 0-.18.19-.29.442-.29.714 0 .261.11.523.29.714.19.181.45.292.71.292.26 0 .52-.111.71-.292.18-.191.29-.453.29-.714 0-.262-.11-.524-.29-.715z"/><path class="st5" d="M56.29 25.28a1.06 1.06 0 0 0-.29.714c0 .261.11.523.29.714.19.181.45.292.71.292.26 0 .52-.111.71-.292.18-.191.29-.453.29-.714 0-.262-.11-.524-.29-.715-.37-.372-1.04-.372-1.42 0z"/><path class="st42" d="M52.29 25.28a1.06 1.06 0 0 0-.29.714c0 .261.11.523.29.714.19.181.45.292.71.292.26 0 .52-.111.71-.292.18-.191.29-.453.29-.714 0-.262-.11-.524-.29-.715a1.042 1.042 0 0 0-1.42 0z"/><path class="st62" d="M61.71 43.28c-.38-.373-1.05-.373-1.42 0-.18.19-.29.442-.29.714 0 .261.11.523.29.714.19.181.45.292.71.292.26 0 .52-.111.71-.292.18-.191.29-.453.29-.714 0-.262-.11-.524-.29-.715z"/><path class="st5" d="M56.29 43.28a1.06 1.06 0 0 0-.29.714c0 .261.11.523.29.714.19.181.45.292.71.292.26 0 .52-.111.71-.292.18-.191.29-.453.29-.714 0-.262-.11-.524-.29-.715-.37-.372-1.04-.372-1.42 0z"/><path class="st42" d="M52.29 43.28a1.06 1.06 0 0 0-.29.714c0 .261.11.523.29.714.19.181.45.292.71.292.26 0 .52-.111.71-.292.18-.191.29-.453.29-.714 0-.262-.11-.524-.29-.715a1.042 1.042 0 0 0-1.42 0z"/><g><path class="st5" d="M22 22h2v8h-2zM22 40h2v8h-2zM22 58h2v8h-2z"/></g><g><path class="st5" d="M26 22h2v8h-2zM26 40h2v8h-2zM26 58h2v8h-2z"/></g><g><path class="st5" d="M30 22h2v8h-2zM30 40h2v8h-2zM30 58h2v8h-2z"/></g><g><path class="st5" d="M68.793 74H51.207a6.207 6.207 0 1 1 0-12.414h17.586a6.207 6.207 0 0 1 0 12.414z"/><circle class="st5" cx="63.103" cy="61.069" r="7.759"/><circle class="st5" cx="53.276" cy="61.586" r="4.138"/><path class="st65" d="M55.367 60.63a7.736 7.736 0 0 1 .482-2.281 4.122 4.122 0 0 0-1.427-.736c.158 1.068.481 2.083.945 3.016zM70.81 61.928a7.753 7.753 0 0 1-.76 2.58 10.144 10.144 0 0 0 2.113-1.923 6.175 6.175 0 0 0-1.352-.657zM50.077 64.21a4.119 4.119 0 0 1-.923-2.269c-.401.14-.782.321-1.14.537a5.198 5.198 0 0 0 2.063 1.732z"/></g></svg>